<svg xmlns="http://www.w3.org/2000/svg" version="1.0" width="1280.000000pt" height="444.000000pt" viewBox="0 0 1280.000000 444.000000" preserveAspectRatio="xMidYMid meet">

<g transform="translate(0.000000,444.000000) scale(0.100000,-0.100000)" fill="#ffffff" stroke="none">
<path d="M7018 4432 c-1 -5 -39 -28 -84 -51 -74 -40 -90 -54 -205 -188 -413 -484 -588 -685 -640 -738 -32 -33 -59 -64 -59 -67 0 -4 29 -41 65 -83 68 -80 69 -83 57 -100 -9 -13 -133 -75 -149 -75 -7 0 -97 75 -200 168 -339 301 -425 377 -455 401 l-30 24 -75 -37 c-40 -21 -89 -51 -108 -68 -49 -42 -69 -33 -61 27 7 41 5 45 -14 45 -11 0 -83 -20 -158 -45 -151 -50 -263 -86 -512 -165 -91 -29 -203 -65 -250 -80 -47 -15 -111 -35 -143 -44 -31 -9 -78 -29 -105 -44 -26 -15 -60 -34 -76 -42 -16 -8 -31 -21 -33 -28 -3 -7 0 -67 6 -134 6 -67 14 -190 18 -275 3 -85 10 -156 14 -159 5 -2 39 3 78 12 38 9 76 14 84 11 17 -6 34 -104 21 -117 -5 -4 -72 -10 -149 -13 -137 -6 -188 -15 -313 -61 -50 -18 -134 -62 -174 -89 -49 -36 -52 -27 -53 174 -2 191 -6 215 -59 341 -67 157 -217 322 -381 419 -117 69 -142 81 -245 113 -143 46 -241 59 -465 64 -237 5 -379 -13 -635 -80 -257 -68 -537 -188 -783 -336 -70 -42 -155 -93 -188 -114 -68 -40 -235 -198 -221 -207 5 -3 128 -202 272 -441 144 -239 268 -437 276 -438 14 -4 52 11 119 45 17 8 43 13 59 11 27 -3 35 -19 227 -463 109 -253 205 -473 213 -490 20 -41 56 -122 132 -298 66 -152 102 -232 134 -302 10 -22 50 -112 88 -200 95 -218 93 -215 109 -215 7 0 13 4 13 9 0 5 60 28 133 51 72 23 197 64 277 90 80 26 198 64 264 85 111 36 165 64 274 145 36 27 38 34 17 104 -8 28 -24 89 -36 136 -12 47 -27 105 -34 130 -7 25 -20 74 -30 110 -9 36 -23 83 -31 105 -10 27 -11 42 -3 50 11 10 17 4 123 -120 91 -106 217 -183 371 -228 102 -29 289 -28 405 2 141 37 310 125 403 210 26 24 29 25 41 9 7 -9 18 -72 25 -140 7 -68 16 -127 20 -131 5 -5 51 -2 102 7 135 22 529 80 612 91 50 7 213 85 235 113 9 11 12 78 12 248 0 195 2 233 15 238 8 3 159 -67 337 -155 178 -89 496 -247 708 -351 l384 -190 36 18 c19 10 61 34 92 52 l58 33 2 332 3 332 60 18 c33 10 85 25 115 34 30 9 101 38 157 65 57 26 109 48 118 48 20 0 19 -14 -10 -187 -25 -139 -25 -148 -9 -160 10 -7 29 -13 42 -13 13 0 65 -7 116 -15 186 -32 264 -45 391 -65 72 -11 170 -27 218 -36 l89 -15 46 24 c26 14 62 33 79 43 44 25 55 16 108 -81 24 -44 48 -81 54 -83 6 -2 38 13 72 33 60 35 89 39 89 13 1 -54 30 -222 40 -228 6 -4 55 -15 108 -24 53 -10 131 -24 172 -31 41 -7 118 -21 170 -30 52 -9 129 -23 170 -31 380 -71 360 -71 468 -9 95 55 89 34 62 198 -15 95 -11 102 72 111 34 4 95 19 136 32 56 19 77 22 82 13 8 -12 7 -31 -16 -203 -8 -60 -11 -113 -6 -118 9 -9 67 -20 237 -44 359 -50 385 -54 408 -66 15 -7 17 -24 17 -124 0 -63 4 -124 10 -134 5 -10 24 -21 42 -25 18 -4 92 -26 163 -50 72 -23 184 -59 250 -80 66 -20 137 -43 158 -51 55 -20 70 -18 147 24 117 64 108 49 205 347 48 149 93 286 100 305 18 52 32 92 77 230 22 69 52 157 65 195 14 39 28 84 33 100 4 17 13 44 19 60 51 135 501 1512 499 1524 -2 9 -18 18 -38 22 -35 6 -94 21 -185 45 -27 7 -90 23 -140 34 -49 12 -115 27 -145 35 -155 41 -391 95 -412 95 -12 0 -41 -11 -63 -25 -64 -39 -105 -29 -105 24 0 39 -9 45 -95 65 -44 10 -107 24 -140 32 -33 7 -103 23 -155 34 -136 30 -226 50 -295 65 -145 32 -205 45 -280 61 -44 9 -93 20 -110 25 -25 8 -42 3 -110 -32 -127 -66 -115 -30 -108 -345 l6 -273 -24 -5 c-13 -3 -62 -10 -109 -16 -140 -19 -302 -76 -395 -139 -56 -38 -69 -24 -85 90 -6 41 -17 112 -25 159 -8 47 -21 132 -30 190 -9 58 -23 146 -31 195 -7 50 -21 133 -29 185 -8 52 -19 118 -23 145 l-7 50 -356 3 -356 2 -88 -45 c-48 -25 -97 -52 -109 -60 -17 -12 -73 -15 -317 -15 l-296 0 -69 -36 c-119 -63 -119 -63 -137 -158 -10 -46 -17 -96 -17 -109 0 -29 -24 -52 -42 -41 -7 5 -37 27 -66 51 -57 46 -182 110 -277 142 -52 17 -99 26 -243 47 -27 4 -33 9 -30 25 2 15 30 35 93 68 115 60 268 142 370 199 44 24 95 50 113 58 19 7 32 19 30 26 -2 11 -370 565 -427 645 -16 23 -37 30 -43 15z m44 -349 c14 -21 62 -87 106 -147 44 -59 78 -114 75 -122 -3 -7 -15 -16 -26 -20 -12 -4 -40 -18 -62 -32 -83 -53 -575 -291 -589 -286 -19 7 -46 65 -38 80 12 22 334 407 407 486 38 43 77 78 86 78 9 0 28 -17 41 -37z m2063 -673 c4 -6 13 -52 20 -103 25 -174 82 -541 116 -756 l21 -124 -31 -41 c-71 -95 -142 -226 -170 -312 -97 -298 -39 -596 157 -806 48 -52 176 -148 197 -148 25 0 53 -40 60 -85 3 -26 3 -51 -2 -56 -19 -19 -510 53 -534 79 -11 12 -26 85 -48 237 -18 121 -38 258 -46 305 -7 47 -21 137 -30 200 -9 63 -18 130 -21 148 -3 17 -9 32 -14 32 -15 0 -16 -1 -136 -320 -7 -19 -21 -57 -31 -84 -10 -27 -24 -51 -30 -53 -19 -7 -51 54 -183 340 -68 147 -129 266 -134 264 -6 -2 -12 -17 -14 -33 -1 -16 -9 -69 -17 -119 -14 -84 -36 -221 -71 -445 -24 -158 -14 -143 -97 -137 -110 9 -420 66 -435 81 -11 10 -9 34 8 132 12 65 26 148 31 184 5 36 11 76 15 89 3 14 56 76 117 139 l112 115 -79 72 -80 73 11 79 c22 155 143 854 150 866 4 6 9 27 13 47 l5 35 257 3 c235 2 256 1 262 -15 4 -10 18 -78 31 -153 14 -74 29 -157 35 -185 6 -27 19 -101 30 -164 19 -115 33 -150 43 -115 3 11 17 87 31 169 15 83 35 200 46 260 11 61 23 128 26 150 3 22 15 68 26 103 l21 62 178 0 c111 0 180 -4 184 -10z m-4263 -60 c6 -44 29 -409 33 -540 1 -36 3 -67 4 -69 4 -11 50 47 222 288 208 291 264 364 279 369 11 4 450 -412 464 -440 10 -21 -39 -78 -328 -383 -105 -110 -219 -231 -255 -268 -37 -39 -60 -72 -55 -77 5 -4 119 -51 254 -104 380 -150 347 -132 407 -216 97 -136 207 -232 348 -303 80 -40 216 -84 290 -93 28 -4 56 -11 63 -17 14 -11 18 -422 3 -431 -15 -9 -101 32 -850 407 -404 202 -741 365 -748 363 -10 -4 -13 -92 -15 -413 l-3 -408 -70 -17 c-38 -9 -128 -24 -199 -34 -124 -15 -130 -15 -143 2 -7 10 -13 30 -13 44 0 15 -5 85 -10 155 l-11 128 45 101 c68 152 89 247 90 396 1 90 -4 146 -18 200 -25 102 -94 242 -156 317 l-52 62 -23 278 c-35 409 -35 413 -53 413 -9 0 -44 -7 -79 -16 -88 -22 -93 -19 -93 65 0 38 3 76 6 85 6 16 77 40 404 136 41 12 107 32 145 45 98 32 108 30 117 -25z m-2572 -30 c217 -22 338 -59 474 -144 275 -171 398 -429 340 -711 -57 -275 -281 -595 -549 -785 -101 -71 -118 -88 -110 -109 4 -9 28 -101 55 -206 28 -104 57 -215 65 -245 8 -30 28 -107 45 -170 16 -63 46 -175 65 -249 23 -86 32 -138 26 -144 -24 -24 -372 -147 -417 -147 -22 0 -36 26 -142 265 -24 55 -55 125 -69 155 -14 30 -40 89 -58 130 -18 41 -47 107 -65 145 -18 39 -56 124 -85 190 -29 66 -115 257 -190 425 -75 168 -161 359 -190 425 -91 206 -134 295 -142 295 -4 0 -46 -20 -94 -45 -48 -25 -98 -45 -111 -45 -18 0 -33 18 -77 93 -30 50 -98 167 -152 258 -55 91 -99 175 -99 187 0 16 19 32 73 64 469 274 992 411 1407 368z m4747 -145 c106 -26 238 -94 326 -169 45 -40 77 -74 77 -85 0 -26 -51 -85 -402 -458 -131 -139 -238 -257 -238 -263 0 -26 204 13 270 51 57 34 168 120 174 134 3 8 14 19 25 24 17 10 37 -5 162 -116 77 -71 152 -136 165 -146 13 -10 24 -24 24 -31 0 -17 -133 -144 -192 -184 -76 -52 -225 -122 -333 -157 -309 -100 -539 -94 -775 21 -80 39 -108 60 -180 133 -93 94 -135 162 -171 281 -20 63 -23 97 -24 210 0 152 11 201 73 327 104 214 395 405 677 442 94 13 258 6 342 -14z m4100 -157 c7 -8 20 -47 28 -88 8 -41 22 -109 30 -150 20 -92 73 -342 126 -594 21 -104 39 -198 39 -210 0 -12 5 -28 10 -36 15 -23 24 -2 55 124 68 281 127 528 146 606 11 47 26 101 34 120 8 19 17 50 20 68 4 18 14 36 22 39 9 3 48 -1 87 -10 85 -20 382 -86 414 -93 12 -2 22 -12 22 -22 0 -15 -199 -623 -610 -1862 l-148 -445 -44 2 c-39 2 -239 56 -311 85 -15 6 -29 20 -32 32 -6 26 -25 757 -26 1025 -1 108 -5 210 -9 226 l-7 30 -11 -28 c-7 -15 -25 -109 -42 -210 -16 -100 -39 -234 -51 -297 -11 -63 -33 -185 -48 -270 l-27 -155 -80 0 c-69 0 -267 26 -316 41 -26 8 -28 29 -15 175 l12 137 67 70 c159 169 247 337 283 542 19 107 19 178 0 276 -28 146 -86 265 -184 378 -38 44 -42 54 -37 85 3 20 11 98 17 175 13 156 17 148 -66 167 -72 17 -78 24 -71 84 4 27 8 65 11 84 2 19 8 37 14 40 16 10 681 -125 698 -141z m-928 -473 c239 -76 381 -276 381 -539 0 -196 -80 -378 -241 -551 -93 -99 -213 -171 -359 -216 -109 -33 -277 -33 -375 0 -218 75 -350 227 -391 451 -15 80 -15 103 -4 179 15 98 33 158 79 251 92 188 323 373 540 430 43 12 105 19 178 19 93 1 125 -3 192 -24z m-4459 -52 c0 -5 3 -48 6 -98 11 -184 12 -170 -16 -169 -14 1 -63 15 -110 32 -65 24 -86 36 -88 51 -4 27 153 187 186 190 12 0 22 -2 22 -6z m-1668 -104 c175 -53 314 -189 379 -369 20 -56 23 -84 23 -200 1 -115 -3 -146 -23 -210 -45 -141 -133 -284 -245 -396 -98 -97 -197 -157 -336 -203 -263 -85 -550 -5 -699 196 -92 124 -125 222 -125 378 0 291 160 550 443 718 83 50 200 93 289 107 80 12 215 3 294 -21z" fill="#ffffff"/>
<path d="M2335 2694 c-11 -2 -44 -9 -73 -15 -70 -14 -142 -46 -142 -63 0 -12 65 -229 193 -646 21 -69 38 -106 48 -108 22 -4 210 148 260 210 89 112 122 239 96 365 -26 119 -86 189 -201 231 -53 20 -146 33 -181 26z m81 -215 c11 -11 25 -19 30 -19 11 0 46 -37 56 -60 5 -11 7 -10 7 6 1 26 -31 64 -53 64 -9 0 -16 5 -16 11 0 16 42 0 70 -27 22 -21 23 -27 13 -54 -7 -17 -7 -32 -2 -36 14 -8 11 -105 -6 -161 -24 -80 -79 -111 -96 -53 -18 66 -72 238 -80 258 -12 32 -11 59 3 82 15 23 41 19 74 -11z" fill="#ffffff"/>
<path d="M6620 2872 c-113 -30 -220 -116 -264 -211 -17 -37 -21 -66 -21 -151 0 -94 3 -111 27 -160 36 -74 94 -140 121 -140 16 0 85 71 257 266 129 146 238 272 243 279 16 29 -88 97 -185 120 -79 18 -97 18 -178 -3z m145 -159 c-4 -10 -10 -27 -13 -38 -7 -25 -218 -267 -243 -279 -27 -13 -39 2 -50 59 -14 76 5 158 50 209 30 34 76 50 161 56 47 4 89 8 94 8 4 1 5 -6 1 -15z" fill="#ffffff"/>
<path d="M9852 2414 c-72 -19 -107 -39 -165 -92 -69 -65 -97 -125 -97 -206 0 -134 79 -255 202 -312 56 -26 74 -29 163 -29 118 0 167 19 240 93 65 65 97 137 102 225 6 102 -30 163 -50 85 -12 -48 -90 -123 -143 -138 -131 -37 -284 65 -284 189 0 59 25 101 90 147 38 27 48 39 38 45 -17 11 -33 10 -96 -7z" fill="#ffffff"/>
<path d="M3717 2226 c-153 -63 -227 -160 -227 -297 0 -166 139 -316 312 -335 75 -9 177 11 231 46 53 33 110 101 136 161 29 66 33 199 7 235 -14 19 -15 19 -21 -1 -21 -62 -32 -81 -68 -114 -57 -53 -75 -60 -147 -61 -57 0 -73 4 -120 33 -67 40 -117 123 -106 179 9 50 41 95 91 130 24 17 42 35 39 40 -10 15 -69 8 -127 -16z" fill="#ffffff"/>
</g>
</svg>